<svg width="22" height="22" viewBox="0 0 22 22" fill="none" xmlns="http://www.w3.org/2000/svg">
<g clip-path="url(#clip0_1_108)">
<path d="M13.7451 19.2432V11.9124C13.7451 11.6694 13.6486 11.4363 13.4767 11.2645C13.3049 11.0926 13.0718 10.9961 12.8288 10.9961H9.16341C8.92038 10.9961 8.68731 11.0926 8.51546 11.2645C8.34361 11.4363 8.24707 11.6694 8.24707 11.9124V19.2432" stroke="white" stroke-width="2.29085" stroke-linecap="round" stroke-linejoin="round"/>
<path d="M2.74902 9.16338C2.74896 8.89678 2.80706 8.63339 2.91927 8.39156C3.03148 8.14973 3.1951 7.93529 3.39871 7.76321L9.81309 2.26608C10.1439 1.98651 10.563 1.83313 10.9961 1.83313C11.4292 1.83313 11.8483 1.98651 12.1791 2.26608L18.5935 7.76321C18.7971 7.93529 18.9607 8.14973 19.0729 8.39156C19.1851 8.63339 19.2432 8.89678 19.2432 9.16338V17.4104C19.2432 17.8965 19.0501 18.3626 18.7064 18.7063C18.3627 19.05 17.8965 19.2431 17.4105 19.2431H4.5817C4.09565 19.2431 3.6295 19.05 3.2858 18.7063C2.94211 18.3626 2.74902 17.8965 2.74902 17.4104V9.16338Z" stroke="white" stroke-width="2.29085" stroke-linecap="round" stroke-linejoin="round"/>
</g>
<defs>
<clipPath id="clip0_1_108">
<rect width="21.9922" height="21.9922" fill="white"/>
</clipPath>
</defs>
</svg>
