<svg width="38" height="38" viewBox="0 0 38 38" fill="none" xmlns="http://www.w3.org/2000/svg">
<g clip-path="url(#clip0_1_556)">
<path d="M8.19787 28.6399C7.81273 29.2328 7.67885 29.9544 7.8257 30.6459L8.42765 33.4779C8.50115 33.8237 8.70901 34.1261 9.0055 34.3187C9.302 34.5112 9.66283 34.5781 10.0086 34.5046L13.9202 33.6732C14.266 33.5997 14.5684 33.3918 14.761 33.0953C14.9535 32.7988 15.0204 32.438 14.9469 32.0922L14.6697 30.7883C14.5962 30.4425 14.6631 30.0817 14.8557 29.7852C15.0482 29.4887 15.3506 29.2808 15.6964 29.2073L17.0003 28.9302C17.3461 28.8567 17.6485 28.6488 17.8411 28.3524C18.0336 28.0559 18.1005 27.695 18.027 27.3492L17.7499 26.0454C17.6764 25.6996 17.7432 25.3387 17.9358 25.0422C18.1283 24.7457 18.4308 24.5379 18.7766 24.4644L19.0008 24.4167C19.6923 24.2696 20.2971 23.8538 20.6821 23.2608L21.5178 21.9739C23.4641 22.2199 25.4363 21.7982 27.1118 20.7777C28.7872 19.7571 30.0668 18.1982 30.7411 16.3559C31.4153 14.5137 31.4444 12.4971 30.8236 10.6361C30.2028 8.77511 28.9688 7.1799 27.3235 6.11143C25.6782 5.04295 23.719 4.56447 21.7664 4.75425C19.8138 4.94403 17.9834 5.79085 16.5746 7.15616C15.1659 8.52147 14.2622 10.3245 14.0113 12.2702C13.7605 14.2159 14.1774 16.1891 15.1938 17.867L8.19787 28.6399Z" stroke="white" stroke-width="3.33244" stroke-linecap="round" stroke-linejoin="round"/>
<path d="M23.7306 12.5093C24.0906 12.4328 24.3205 12.0789 24.2439 11.7188C24.1674 11.3588 23.8135 11.129 23.4534 11.2055C23.0934 11.282 22.8636 11.6359 22.9401 11.996C23.0166 12.356 23.3705 12.5859 23.7306 12.5093Z" fill="white" stroke="white" stroke-width="3.33244" stroke-linecap="round" stroke-linejoin="round"/>
</g>
<defs>
<clipPath id="clip0_1_556">
<rect width="31.9914" height="31.9914" fill="white" transform="translate(0 6.6514) rotate(-12)"/>
</clipPath>
</defs>
</svg>
