<svg width="22" height="22" viewBox="0 0 22 22" fill="none" xmlns="http://www.w3.org/2000/svg">
<path d="M14.393 19.5117C14.2211 19.6834 13.9881 19.78 13.7451 19.78C13.5021 19.78 13.2691 19.6834 13.0972 19.5117L11.6439 18.0583C11.4721 17.8865 11.3756 17.6535 11.3756 17.4105C11.3756 17.1675 11.4721 16.9345 11.6439 16.7626L16.7626 11.644C16.9344 11.4722 17.1675 11.3757 17.4105 11.3757C17.6534 11.3757 17.8865 11.4722 18.0583 11.644L19.5116 13.0973C19.6834 13.2691 19.7799 13.5022 19.7799 13.7451C19.7799 13.9881 19.6834 14.2211 19.5116 14.393L14.393 19.5117Z" stroke="#E0E7FF" stroke-width="1.83268" stroke-linecap="round" stroke-linejoin="round"/>
<path d="M16.4941 11.9125L15.2342 5.61353C15.1999 5.44215 15.1173 5.28415 14.9962 5.15816C14.8751 5.03217 14.7205 4.94345 14.5506 4.90245L2.96436 1.85837C2.81172 1.82146 2.65216 1.8244 2.50099 1.86691C2.34982 1.90941 2.2121 1.99005 2.10106 2.10109C1.99002 2.21213 1.90938 2.34985 1.86688 2.50102C1.82437 2.65219 1.82143 2.81175 1.85834 2.96439L4.90242 14.5506C4.94342 14.7205 5.03214 14.8751 5.15813 14.9962C5.28412 15.1174 5.44212 15.1999 5.6135 15.2342L11.9124 16.4942" stroke="#E0E7FF" stroke-width="1.83268" stroke-linecap="round" stroke-linejoin="round"/>
<path d="M2.10757 2.1076L8.78403 8.78406" stroke="#E0E7FF" stroke-width="1.83268" stroke-linecap="round" stroke-linejoin="round"/>
<path d="M10.0798 11.9124C11.0919 11.9124 11.9124 11.0919 11.9124 10.0798C11.9124 9.06759 11.0919 8.24707 10.0798 8.24707C9.06759 8.24707 8.24707 9.06759 8.24707 10.0798C8.24707 11.0919 9.06759 11.9124 10.0798 11.9124Z" stroke="#E0E7FF" stroke-width="1.83268" stroke-linecap="round" stroke-linejoin="round"/>
</svg>
