<svg width="22" height="22" viewBox="0 0 22 22" fill="none" xmlns="http://www.w3.org/2000/svg">
<g clip-path="url(#clip0_1_104)">
<path d="M11.1977 1.8327H10.7945C10.3084 1.8327 9.84228 2.02579 9.49859 2.36948C9.15489 2.71318 8.96181 3.17933 8.96181 3.66538V3.83032C8.96148 4.15171 8.87664 4.46736 8.71581 4.7456C8.55497 5.02384 8.32379 5.2549 8.04547 5.41559L7.65144 5.64468C7.37284 5.80553 7.0568 5.89021 6.7351 5.89021C6.4134 5.89021 6.09736 5.80553 5.81876 5.64468L5.68131 5.57137C5.26077 5.32878 4.76115 5.26297 4.29214 5.38839C3.82312 5.5138 3.42303 5.82019 3.1797 6.2403L2.9781 6.58851C2.73552 7.00905 2.6697 7.50867 2.79512 7.97768C2.92053 8.4467 3.22692 8.84678 3.64703 9.09012L3.78448 9.18175C4.06147 9.34166 4.29179 9.57128 4.45254 9.84778C4.6133 10.1243 4.69889 10.438 4.70082 10.7579V11.2252C4.70211 11.5481 4.61803 11.8657 4.45712 12.1457C4.2962 12.4257 4.06416 12.6582 3.78448 12.8196L3.64703 12.9021C3.22692 13.1454 2.92053 13.5455 2.79512 14.0145C2.6697 14.4835 2.73552 14.9832 2.9781 15.4037L3.1797 15.7519C3.42303 16.172 3.82312 16.4784 4.29214 16.6038C4.76115 16.7292 5.26077 16.6634 5.68131 16.4208L5.81876 16.3475C6.09736 16.1867 6.4134 16.102 6.7351 16.102C7.0568 16.102 7.37284 16.1867 7.65144 16.3475L8.04547 16.5766C8.32379 16.7373 8.55497 16.9684 8.71581 17.2466C8.87664 17.5249 8.96148 17.8405 8.96181 18.1619V18.3268C8.96181 18.8129 9.15489 19.279 9.49859 19.6227C9.84228 19.9664 10.3084 20.1595 10.7945 20.1595H11.1977C11.6837 20.1595 12.1499 19.9664 12.4936 19.6227C12.8373 19.279 13.0304 18.8129 13.0304 18.3268V18.1619C13.0307 17.8405 13.1155 17.5249 13.2764 17.2466C13.4372 16.9684 13.6684 16.7373 13.9467 16.5766L14.3407 16.3475C14.6193 16.1867 14.9354 16.102 15.2571 16.102C15.5788 16.102 15.8948 16.1867 16.1734 16.3475L16.3109 16.4208C16.7314 16.6634 17.231 16.7292 17.7 16.6038C18.169 16.4784 18.5691 16.172 18.8125 15.7519L19.0141 15.3945C19.2567 14.974 19.3225 14.4744 19.197 14.0054C19.0716 13.5364 18.7652 13.1363 18.3451 12.8929L18.2077 12.8196C17.928 12.6582 17.696 12.4257 17.535 12.1457C17.3741 11.8657 17.2901 11.5481 17.2913 11.2252V10.767C17.2901 10.4441 17.3741 10.1265 17.535 9.84655C17.696 9.56656 17.928 9.33406 18.2077 9.17259L18.3451 9.09012C18.7652 8.84678 19.0716 8.4467 19.197 7.97768C19.3225 7.50867 19.2567 7.00905 19.0141 6.58851L18.8125 6.2403C18.5691 5.82019 18.169 5.5138 17.7 5.38839C17.231 5.26297 16.7314 5.32878 16.3109 5.57137L16.1734 5.64468C15.8948 5.80553 15.5788 5.89021 15.2571 5.89021C14.9354 5.89021 14.6193 5.80553 14.3407 5.64468L13.9467 5.41559C13.6684 5.2549 13.4372 5.02384 13.2764 4.7456C13.1155 4.46736 13.0307 4.15171 13.0304 3.83032V3.66538C13.0304 3.17933 12.8373 2.71318 12.4936 2.36948C12.1499 2.02579 11.6837 1.8327 11.1977 1.8327Z" stroke="#E0E7FF" stroke-width="1.83268" stroke-linecap="round" stroke-linejoin="round"/>
<path d="M10.9961 13.7451C12.5143 13.7451 13.7451 12.5143 13.7451 10.9961C13.7451 9.47785 12.5143 8.24707 10.9961 8.24707C9.47785 8.24707 8.24707 9.47785 8.24707 10.9961C8.24707 12.5143 9.47785 13.7451 10.9961 13.7451Z" stroke="#E0E7FF" stroke-width="1.83268" stroke-linecap="round" stroke-linejoin="round"/>
</g>
<defs>
<clipPath id="clip0_1_104">
<rect width="21.9922" height="21.9922" fill="white"/>
</clipPath>
</defs>
</svg>
